<svg version="1.1" id="Layer_1" xmlns="http://www.w3.org/2000/svg" xmlns:xlink="http://www.w3.org/1999/xlink" x="0px" y="0px"
	 width="100%" viewBox="0 0 1501 1501" enable-background="new 0 0 1501 1501" xml:space="preserve">
<path fill="#FFFFFF" opacity="1.000000" stroke="none" 
	d="
M1021.000000,1502.000000 
	C680.666748,1502.000000 340.833466,1502.000000 1.000137,1502.000000 
	C1.000091,1001.666809 1.000091,501.333649 1.000046,1.000338 
	C501.333099,1.000226 1001.666199,1.000226 1501.999512,1.000113 
	C1501.999634,501.333008 1501.999634,1001.666016 1501.999756,1501.999512 
	C1341.833374,1502.000000 1181.666626,1502.000000 1021.000000,1502.000000 
M547.999634,1155.016479 
	C547.999634,1155.016479 547.923035,1155.050415 548.215027,1155.662842 
	C549.156311,1156.605469 549.998718,1157.679565 551.053223,1158.471558 
	C583.746704,1183.025879 619.549744,1201.287109 659.228455,1211.595459 
	C684.986816,1218.287354 711.128784,1222.057739 737.816956,1222.034058 
	C834.981934,1221.947754 932.147095,1222.000000 1029.312134,1222.000000 
	C1031.441528,1222.000000 1033.570923,1222.000000 1035.835327,1222.000000 
	C1035.835327,1220.304443 1035.835327,1219.152222 1035.962158,1217.070435 
	C1035.974731,1187.247070 1035.955078,1157.423462 1036.015381,1127.600220 
	C1036.040405,1115.186646 1035.024170,1114.074463 1022.602051,1114.059937 
	C928.133118,1113.950439 833.663818,1114.098389 739.195374,1113.861450 
	C728.710327,1113.835205 718.102295,1112.594604 707.773621,1110.703125 
	C684.801208,1106.496216 663.401123,1097.941162 643.179077,1086.144775 
	C625.362732,1075.751709 610.166626,1062.255127 596.785217,1046.928223 
	C583.673340,1031.910278 573.432373,1014.844055 565.585815,996.332092 
	C556.906616,975.855530 551.832031,954.566284 550.144226,932.522949 
	C549.345520,922.091431 550.070557,911.543274 550.676392,900.675964 
	C550.729309,899.785339 550.782227,898.894714 550.960632,897.160583 
	C551.008850,895.456360 551.057068,893.752197 551.676331,891.675964 
	C551.729248,890.785339 551.782166,889.894714 551.961060,888.271667 
	C552.009094,887.530457 552.057190,886.789185 552.676392,885.675964 
	C552.729309,884.785339 552.782227,883.894714 552.964722,882.357971 
	C553.011597,881.921326 553.058411,881.484619 553.676392,880.675964 
	C553.729309,879.785339 553.782227,878.894714 553.964844,877.358093 
	C554.011658,876.921448 554.058411,876.484741 554.720886,875.593933 
	C556.149658,870.218262 557.261841,864.734009 559.061340,859.485474 
	C567.259216,835.574402 579.451294,813.870056 596.465332,795.137390 
	C615.995728,773.634277 638.781494,756.528259 665.909485,745.522095 
	C683.558960,738.361450 701.928772,734.198914 720.837158,733.138855 
	C739.499268,732.092773 758.122559,733.219238 776.556824,736.948914 
	C800.090271,741.710327 822.460510,749.368652 842.812561,762.321411 
	C849.286316,766.441528 855.582031,770.841370 862.178467,775.630615 
	C862.748535,776.100830 863.318542,776.571106 864.190857,777.641907 
	C865.780334,778.799011 867.369812,779.956116 869.247864,781.706848 
	C893.614136,805.498230 912.062988,833.012817 922.981750,866.000000 
	C920.329285,866.000000 918.503723,866.000000 916.678223,866.000000 
	C861.535583,866.000000 806.393005,865.999817 751.250366,866.001099 
	C749.751221,866.001160 748.233521,865.869385 746.756104,866.053223 
	C740.186707,866.870728 738.046570,868.869995 738.040894,875.051514 
	C738.010742,907.700745 738.110229,940.350220 738.043518,973.818665 
	C738.178284,978.280701 741.602905,976.950378 743.947144,976.953674 
	C788.713989,977.016479 833.480957,977.000000 878.247864,977.000000 
	C928.173828,977.000000 978.099915,977.037781 1028.025391,976.887085 
	C1030.484375,976.879639 1032.938477,975.228333 1035.713379,973.777588 
	C1035.559814,973.394775 1035.406372,973.011902 1035.926392,972.323303 
	C1036.229370,971.217163 1036.532349,970.111084 1036.960938,968.272339 
	C1037.009033,967.530884 1037.057251,966.789490 1037.676392,965.675903 
	C1037.729370,964.785278 1037.782227,963.894653 1037.960571,962.185181 
	C1038.008789,960.806152 1038.057129,959.427063 1038.676392,957.675903 
	C1038.729370,956.785278 1038.782227,955.894653 1038.960815,954.127197 
	C1039.008911,951.767456 1039.057129,949.407776 1039.676270,946.675903 
	C1039.729248,945.785278 1039.782227,944.894653 1039.962158,943.073975 
	C1040.239746,915.445312 1040.064453,887.950439 1034.230591,860.633850 
	C1025.990234,822.049072 1010.980347,786.464111 989.821838,753.364929 
	C974.686829,729.688477 956.175049,708.922852 935.009644,690.421509 
	C917.187866,674.842896 897.628845,661.895813 876.718445,650.993164 
	C859.200745,641.859436 840.810120,634.736511 821.774780,629.422180 
	C802.280762,623.979736 782.388672,619.880615 762.207947,619.268372 
	C743.033081,618.686707 723.665710,619.204102 704.615479,621.326050 
	C687.604675,623.220764 670.697693,627.175903 654.131653,631.653015 
	C632.960815,637.374634 613.071960,646.553833 593.991455,657.457092 
	C575.621826,667.954163 558.544067,680.270874 543.080811,694.608337 
	C526.439087,710.038452 511.045441,726.681213 497.428284,744.960205 
	C478.726593,770.064331 463.524658,797.007080 452.827271,826.443970 
	C446.763092,843.131348 441.815735,860.131775 439.953552,877.858093 
	C438.457275,892.101257 436.785950,906.359070 436.191132,920.651917 
	C435.823273,929.491577 436.960419,938.454895 438.072632,947.280701 
	C439.753662,960.620117 441.491638,973.989807 444.119415,987.164307 
	C449.087616,1012.072571 457.344910,1036.011230 469.066437,1058.513672 
	C476.179474,1072.169067 484.456329,1085.305420 493.169373,1098.017578 
	C503.448425,1113.014771 515.327026,1126.808105 529.191101,1139.641968 
	C530.780457,1140.798950 532.369812,1141.955933 534.207458,1143.662231 
	C535.101257,1144.455322 535.994995,1145.248291 537.191040,1146.641968 
	C538.780396,1147.798950 540.369751,1148.956055 542.120667,1150.550781 
	C542.304993,1150.826538 542.561035,1150.990112 543.190491,1151.641602 
	C544.776917,1152.789062 546.363281,1153.936401 547.999634,1155.016479 
M1265.970215,1197.522827 
	C1278.434448,1192.437744 1291.115967,1187.822021 1303.318115,1182.171021 
	C1329.698242,1169.954102 1352.937012,1152.842773 1374.033081,1133.116943 
	C1387.310425,1120.702026 1399.786499,1107.202515 1411.130249,1092.998169 
	C1430.914795,1068.224243 1446.709473,1040.892944 1458.838257,1011.503540 
	C1473.298218,976.465332 1481.969971,940.016907 1484.834717,902.289185 
	C1485.845215,888.980530 1485.388306,875.516479 1484.886963,862.150146 
	C1484.442627,850.305603 1483.822998,838.357605 1481.814575,826.708069 
	C1478.952515,810.109070 1475.480713,793.537415 1470.958008,777.319763 
	C1463.196045,749.486328 1450.946655,723.465027 1436.754028,698.321960 
	C1422.759399,673.529236 1406.095703,650.652649 1386.396606,630.205444 
	C1375.537598,618.934143 1363.475708,608.702637 1351.228027,598.913330 
	C1325.294556,578.185364 1296.010620,563.346313 1264.939941,551.915405 
	C1244.101440,544.248901 1222.664551,538.677734 1200.780518,535.237854 
	C1186.654907,533.017578 1172.305298,532.024902 1158.015625,531.116577 
	C1148.388062,530.504578 1138.687988,530.890503 1129.024536,531.064270 
	C1125.993164,531.118835 1124.618530,530.165466 1123.934326,527.153015 
	C1122.701538,521.725769 1121.129395,516.366882 1119.503784,511.039001 
	C1110.781250,482.451416 1098.743164,455.347626 1083.352783,429.702087 
	C1070.250854,407.869629 1055.095947,387.548035 1037.481934,369.250458 
	C1026.134521,357.462646 1013.672058,346.709625 1001.330688,335.926300 
	C983.155334,320.045502 962.703552,307.439087 941.429504,296.212006 
	C919.996765,284.901184 897.464966,276.250183 874.165344,269.563995 
	C849.741028,262.555084 824.766113,258.366333 799.483337,257.217865 
	C775.352356,256.121643 751.069031,256.170593 727.212463,261.053284 
	C708.771973,264.827454 690.226624,268.436371 672.167358,273.643219 
	C646.656555,280.998444 622.582397,292.043854 599.710999,305.649567 
	C576.257629,319.601440 554.466125,335.794708 534.933044,354.796143 
	C524.276245,365.162842 514.509766,376.489899 504.813965,387.789032 
	C488.248047,407.094330 474.780609,428.553986 463.070557,451.059723 
	C452.433685,471.502960 443.211914,492.672974 437.655975,515.074341 
	C433.286255,532.692810 430.460693,550.697998 427.196198,568.576477 
	C427.020782,569.537231 428.909332,571.476807 430.221375,572.003479 
	C436.005463,574.325256 441.917145,576.334229 447.806946,578.386658 
	C465.633118,584.598572 483.459045,590.811523 501.308502,596.956116 
	C510.268951,600.040710 519.280090,602.977966 528.141235,605.939331 
	C529.809265,593.510742 530.747253,581.193481 533.210632,569.189270 
	C539.978210,536.210754 552.093750,505.274017 571.196106,477.384369 
	C583.535889,459.368134 597.643494,442.904816 614.011719,428.236969 
	C631.072083,412.948914 649.460510,399.716522 669.969360,389.771942 
	C682.315979,383.785156 695.437683,379.249634 708.490662,374.901276 
	C727.619263,368.528870 747.468811,365.681000 767.601746,365.042175 
	C775.679504,364.785889 783.833252,364.366211 791.844727,365.138245 
	C806.380127,366.538910 820.986511,368.009491 835.289185,370.837219 
	C859.206360,375.565765 881.234680,385.483246 902.304871,397.651520 
	C922.304932,409.201782 939.636108,424.156738 956.233398,439.954285 
	C963.132874,446.521240 968.983154,454.221893 975.069153,461.605957 
	C991.650269,481.723572 1003.956726,504.290253 1013.026184,528.675598 
	C1025.229248,561.486206 1029.748291,595.577942 1029.998047,630.382263 
	C1030.013062,632.476501 1030.000000,634.570984 1030.000000,637.000000 
	C1046.859375,637.000000 1063.005737,636.778809 1079.144043,637.047791 
	C1109.031250,637.545959 1138.965698,637.492920 1168.776123,639.347473 
	C1183.834473,640.284302 1198.894165,644.045532 1213.546265,648.027344 
	C1237.876221,654.639160 1259.849487,666.587585 1280.335083,681.154236 
	C1300.144287,695.239868 1317.268677,712.203003 1331.806519,731.650024 
	C1343.667236,747.516174 1353.180420,764.776367 1361.055298,782.987854 
	C1372.202637,808.766968 1378.098267,835.785095 1379.857178,863.642700 
	C1381.025757,882.150024 1379.435425,900.613281 1376.079712,918.932495 
	C1371.066895,946.296326 1361.011597,971.593018 1345.705322,994.752258 
	C1332.618408,1014.553589 1316.862915,1031.964722 1298.512207,1047.131836 
	C1281.682251,1061.041870 1263.564087,1072.907959 1244.216675,1082.861938 
	C1226.204956,1092.128662 1207.297852,1099.357544 1187.724609,1104.544922 
	C1167.518066,1109.900391 1147.054077,1114.010498 1125.979980,1114.063599 
	C1122.429565,1114.072510 1118.881104,1114.918701 1115.434692,1115.364868 
	C1115.434692,1151.054199 1115.434692,1186.427124 1115.434692,1222.817871 
	C1129.956787,1221.863037 1144.011719,1221.254272 1157.998901,1219.929810 
	C1171.737305,1218.628784 1185.623657,1217.594849 1199.058105,1214.667969 
	C1221.288452,1209.824707 1243.208374,1203.556030 1265.970215,1197.522827 
M257.803741,733.108276 
	C270.184448,730.705505 282.507385,727.931824 294.960236,725.992371 
	C311.118713,723.475769 327.479462,724.132202 343.331116,727.485107 
	C358.015717,730.591187 372.214752,735.973267 386.674072,740.193848 
	C388.146759,740.623657 390.678497,740.600220 391.460083,739.697449 
	C395.864075,734.610474 399.855774,729.168518 404.038422,723.887512 
	C416.091248,708.669617 428.187531,693.486206 440.226807,678.257629 
	C445.587738,671.476501 450.852966,664.619690 456.389862,657.503906 
	C452.960968,655.489502 450.046265,653.664429 447.031158,652.023865 
	C424.375122,639.697021 400.489716,630.466675 375.243866,625.278992 
	C361.279877,622.409546 347.061432,620.045044 332.858490,619.269043 
	C317.316376,618.419800 301.598480,618.925598 286.071289,620.214905 
	C271.894562,621.392090 257.712463,623.693054 243.814148,626.770020 
	C219.992065,632.044067 197.500610,641.109192 175.866379,652.483276 
	C152.203552,664.923950 130.991379,680.665955 111.695526,698.984924 
	C103.547867,706.720093 96.164322,715.296387 88.780304,723.791870 
	C74.585770,740.123047 62.908642,758.166321 52.861286,777.326233 
	C43.895107,794.424255 36.673840,812.225891 31.221670,830.691956 
	C23.980789,855.216309 19.707666,880.351624 19.172596,905.912842 
	C18.875444,920.108337 19.707403,934.404968 21.173773,948.537415 
	C22.557907,961.877319 24.818726,975.202820 27.790247,988.285645 
	C34.171223,1016.379456 45.412617,1042.620972 59.830215,1067.530640 
	C71.769325,1088.157837 85.989807,1107.131958 102.750610,1123.993164 
	C113.090378,1134.394775 124.343452,1143.979614 135.810638,1153.150757 
	C159.375259,1171.997070 185.770340,1185.861816 214.129440,1196.138306 
	C240.096405,1205.547974 266.925049,1211.067749 294.359680,1212.786499 
	C315.847992,1214.132812 337.464478,1213.401001 358.796326,1209.854370 
	C377.903442,1206.677490 396.808380,1202.283813 414.716156,1194.820679 
	C428.881989,1188.916992 442.530792,1181.772461 456.947021,1174.923340 
	C449.760925,1165.753784 443.503601,1157.729736 437.204041,1149.738770 
	C422.235626,1130.751709 407.216309,1111.804565 392.308350,1092.770142 
	C390.551880,1090.527588 388.732880,1090.382202 386.371399,1091.262817 
	C378.849091,1094.068237 371.503235,1097.684082 363.739136,1099.429688 
	C349.849426,1102.552124 335.785248,1105.551270 321.640594,1106.681152 
	C310.218140,1107.593506 298.532013,1106.064697 287.030487,1104.931885 
	C268.225342,1103.080078 250.456604,1097.249756 233.487915,1089.114624 
	C210.039139,1077.872925 188.997299,1063.189697 172.563034,1042.842896 
	C163.503632,1031.626953 154.664230,1019.996887 147.515915,1007.527222 
	C135.837463,987.155029 128.879745,964.993042 125.771187,941.511841 
	C123.644852,925.450073 123.224731,909.472839 125.189835,893.538391 
	C127.442711,875.270630 132.303131,857.642578 139.578674,840.568787 
	C152.221573,810.899353 171.122253,786.060181 195.918793,765.788330 
	C214.043793,750.970703 234.919632,740.897583 257.803741,733.108276 
z"/>
<path fill="#4DCEF3" opacity="1.000000" stroke="none" 
	d="
M1265.614624,1197.705444 
	C1243.208374,1203.556030 1221.288452,1209.824707 1199.058105,1214.667969 
	C1185.623657,1217.594849 1171.737305,1218.628784 1157.998901,1219.929810 
	C1144.011719,1221.254272 1129.956787,1221.863037 1115.434692,1222.817871 
	C1115.434692,1186.427124 1115.434692,1151.054199 1115.434692,1115.364868 
	C1118.881104,1114.918701 1122.429565,1114.072510 1125.979980,1114.063599 
	C1147.054077,1114.010498 1167.518066,1109.900391 1187.724609,1104.544922 
	C1207.297852,1099.357544 1226.204956,1092.128662 1244.216675,1082.861938 
	C1263.564087,1072.907959 1281.682251,1061.041870 1298.512207,1047.131836 
	C1316.862915,1031.964722 1332.618408,1014.553589 1345.705322,994.752258 
	C1361.011597,971.593018 1371.066895,946.296326 1376.079712,918.932495 
	C1379.435425,900.613281 1381.025757,882.150024 1379.857178,863.642700 
	C1378.098267,835.785095 1372.202637,808.766968 1361.055298,782.987854 
	C1353.180420,764.776367 1343.667236,747.516174 1331.806519,731.650024 
	C1317.268677,712.203003 1300.144287,695.239868 1280.335083,681.154236 
	C1259.849487,666.587585 1237.876221,654.639160 1213.546265,648.027344 
	C1198.894165,644.045532 1183.834473,640.284302 1168.776123,639.347473 
	C1138.965698,637.492920 1109.031250,637.545959 1079.144043,637.047791 
	C1063.005737,636.778809 1046.859375,637.000000 1030.000000,637.000000 
	C1030.000000,634.570984 1030.013062,632.476501 1029.998047,630.382263 
	C1029.748291,595.577942 1025.229248,561.486206 1013.026184,528.675598 
	C1003.956726,504.290253 991.650269,481.723572 975.069153,461.605957 
	C968.983154,454.221893 963.132874,446.521240 956.233398,439.954285 
	C939.636108,424.156738 922.304932,409.201782 902.304871,397.651520 
	C881.234680,385.483246 859.206360,375.565765 835.289185,370.837219 
	C820.986511,368.009491 806.380127,366.538910 791.844727,365.138245 
	C783.833252,364.366211 775.679504,364.785889 767.601746,365.042175 
	C747.468811,365.681000 727.619263,368.528870 708.490662,374.901276 
	C695.437683,379.249634 682.315979,383.785156 669.969360,389.771942 
	C649.460510,399.716522 631.072083,412.948914 614.011719,428.236969 
	C597.643494,442.904816 583.535889,459.368134 571.196106,477.384369 
	C552.093750,505.274017 539.978210,536.210754 533.210632,569.189270 
	C530.747253,581.193481 529.809265,593.510742 528.141235,605.939331 
	C519.280090,602.977966 510.268951,600.040710 501.308502,596.956116 
	C483.459045,590.811523 465.633118,584.598572 447.806946,578.386658 
	C441.917145,576.334229 436.005463,574.325256 430.221375,572.003479 
	C428.909332,571.476807 427.020782,569.537231 427.196198,568.576477 
	C430.460693,550.697998 433.286255,532.692810 437.655975,515.074341 
	C443.211914,492.672974 452.433685,471.502960 463.070557,451.059723 
	C474.780609,428.553986 488.248047,407.094330 504.813965,387.789032 
	C514.509766,376.489899 524.276245,365.162842 534.933044,354.796143 
	C554.466125,335.794708 576.257629,319.601440 599.710999,305.649567 
	C622.582397,292.043854 646.656555,280.998444 672.167358,273.643219 
	C690.226624,268.436371 708.771973,264.827454 727.212463,261.053284 
	C751.069031,256.170593 775.352356,256.121643 799.483337,257.217865 
	C824.766113,258.366333 849.741028,262.555084 874.165344,269.563995 
	C897.464966,276.250183 919.996765,284.901184 941.429504,296.212006 
	C962.703552,307.439087 983.155334,320.045502 1001.330688,335.926300 
	C1013.672058,346.709625 1026.134521,357.462646 1037.481934,369.250458 
	C1055.095947,387.548035 1070.250854,407.869629 1083.352783,429.702087 
	C1098.743164,455.347626 1110.781250,482.451416 1119.503784,511.039001 
	C1121.129395,516.366882 1122.701538,521.725769 1123.934326,527.153015 
	C1124.618530,530.165466 1125.993164,531.118835 1129.024536,531.064270 
	C1138.687988,530.890503 1148.388062,530.504578 1158.015625,531.116577 
	C1172.305298,532.024902 1186.654907,533.017578 1200.780518,535.237854 
	C1222.664551,538.677734 1244.101440,544.248901 1264.939941,551.915405 
	C1296.010620,563.346313 1325.294556,578.185364 1351.228027,598.913330 
	C1363.475708,608.702637 1375.537598,618.934143 1386.396606,630.205444 
	C1406.095703,650.652649 1422.759399,673.529236 1436.754028,698.321960 
	C1450.946655,723.465027 1463.196045,749.486328 1470.958008,777.319763 
	C1475.480713,793.537415 1478.952515,810.109070 1481.814575,826.708069 
	C1483.822998,838.357605 1484.442627,850.305603 1484.886963,862.150146 
	C1485.388306,875.516479 1485.845215,888.980530 1484.834717,902.289185 
	C1481.969971,940.016907 1473.298218,976.465332 1458.838257,1011.503540 
	C1446.709473,1040.892944 1430.914795,1068.224243 1411.130249,1092.998169 
	C1399.786499,1107.202515 1387.310425,1120.702026 1374.033081,1133.116943 
	C1352.937012,1152.842773 1329.698242,1169.954102 1303.318115,1182.171021 
	C1291.115967,1187.822021 1278.434448,1192.437744 1265.614624,1197.705444 
z"/>
<path fill="#4DCEF3" opacity="1.000000" stroke="none" 
	d="
M536.888733,1146.041382 
	C535.994995,1145.248291 535.101257,1144.455322 534.094238,1142.971436 
	C534.327576,1137.987793 531.183777,1139.181641 528.888733,1139.041382 
	C515.327026,1126.808105 503.448425,1113.014771 493.169373,1098.017578 
	C484.456329,1085.305420 476.179474,1072.169067 469.066437,1058.513672 
	C457.344910,1036.011230 449.087616,1012.072571 444.119415,987.164307 
	C441.491638,973.989807 439.753662,960.620117 438.072632,947.280701 
	C436.960419,938.454895 435.823273,929.491577 436.191132,920.651917 
	C436.785950,906.359070 438.457275,892.101257 439.953552,877.858093 
	C441.815735,860.131775 446.763092,843.131348 452.827271,826.443970 
	C463.524658,797.007080 478.726593,770.064331 497.428284,744.960205 
	C511.045441,726.681213 526.439087,710.038452 543.080811,694.608337 
	C558.544067,680.270874 575.621826,667.954163 593.991455,657.457092 
	C613.071960,646.553833 632.960815,637.374634 654.131653,631.653015 
	C670.697693,627.175903 687.604675,623.220764 704.615479,621.326050 
	C723.665710,619.204102 743.033081,618.686707 762.207947,619.268372 
	C782.388672,619.880615 802.280762,623.979736 821.774780,629.422180 
	C840.810120,634.736511 859.200745,641.859436 876.718445,650.993164 
	C897.628845,661.895813 917.187866,674.842896 935.009644,690.421509 
	C956.175049,708.922852 974.686829,729.688477 989.821838,753.364929 
	C1010.980347,786.464111 1025.990234,822.049072 1034.230591,860.633850 
	C1040.064453,887.950439 1040.239746,915.445312 1039.582397,943.595581 
	C1039.170288,945.094177 1039.137817,946.071106 1039.105469,947.048035 
	C1039.057129,949.407776 1039.008911,951.767456 1038.581543,954.622192 
	C1038.170044,956.094177 1038.137695,957.071106 1038.105225,958.048035 
	C1038.057129,959.427063 1038.008789,960.806152 1037.581543,962.651245 
	C1037.170166,964.094177 1037.137817,965.071106 1037.105347,966.048035 
	C1037.057251,966.789490 1037.009033,967.530884 1036.530518,968.729553 
	C1035.817749,970.334229 1035.535278,971.481689 1035.252930,972.629089 
	C1035.406372,973.011902 1035.559814,973.394775 1035.150879,973.818115 
	C1032.312012,973.572510 1030.035645,973.036926 1027.759033,973.035950 
	C931.227600,972.994019 834.696228,972.999695 738.164795,972.999573 
	C738.110229,940.350220 738.010742,907.700745 738.040894,875.051514 
	C738.046570,868.869995 740.186707,866.870728 746.756104,866.053223 
	C748.233521,865.869385 749.751221,866.001160 751.250366,866.001099 
	C806.393005,865.999817 861.535583,866.000000 916.678223,866.000000 
	C918.503723,866.000000 920.329285,866.000000 922.981750,866.000000 
	C912.062988,833.012817 893.614136,805.498230 869.114441,780.993896 
	C869.327759,775.987854 866.183777,777.181702 863.888611,777.041321 
	C863.318542,776.571106 862.748535,776.100830 862.079651,774.964233 
	C861.752136,773.362671 861.839905,772.015259 861.244263,771.557922 
	C856.789307,768.137573 852.437439,764.482239 847.601746,761.679626 
	C837.619385,755.894226 827.700439,749.793152 817.140564,745.251648 
	C791.902222,734.397339 765.321045,729.005615 737.818909,729.106201 
	C725.909729,729.149719 713.843445,729.377441 702.144165,731.310730 
	C690.821167,733.181763 679.690918,736.825745 668.831970,740.690918 
	C661.328674,743.361755 654.404480,747.682434 647.270081,751.360107 
	C641.609314,754.278137 635.691467,756.854736 630.463196,760.425476 
	C613.116028,772.272522 597.874878,786.573853 585.478455,803.486267 
	C570.153625,824.393921 559.364929,847.617126 553.549194,872.997925 
	C553.337097,873.923584 553.902222,875.027344 554.105164,876.048096 
	C554.058411,876.484741 554.011658,876.921448 553.583618,877.737732 
	C553.170044,879.094238 553.137695,880.071106 553.105225,881.047974 
	C553.058411,881.484619 553.011597,881.921326 552.583618,882.737671 
	C552.170105,884.094238 552.137695,885.071106 552.105286,886.047974 
	C552.057190,886.789185 552.009094,887.530457 551.581787,888.694519 
	C551.170105,890.094238 551.137695,891.071106 551.105347,892.047974 
	C551.057068,893.752197 551.008850,895.456360 550.581543,897.638977 
	C550.170105,899.094238 550.137695,900.071106 550.105286,901.047974 
	C550.070557,911.543274 549.345520,922.091431 550.144226,932.522949 
	C551.832031,954.566284 556.906616,975.855530 565.585815,996.332092 
	C573.432373,1014.844055 583.673340,1031.910278 596.785217,1046.928223 
	C610.166626,1062.255127 625.362732,1075.751709 643.179077,1086.144775 
	C663.401123,1097.941162 684.801208,1106.496216 707.773621,1110.703125 
	C718.102295,1112.594604 728.710327,1113.835205 739.195374,1113.861450 
	C833.663818,1114.098389 928.133118,1113.950439 1022.602051,1114.059937 
	C1035.024170,1114.074463 1036.040405,1115.186646 1036.015381,1127.600220 
	C1035.955078,1157.423462 1035.974731,1187.247070 1035.442383,1217.535156 
	C937.775330,1218.000000 840.627991,1218.071045 743.480957,1217.912720 
	C730.901917,1217.892212 718.312012,1216.868896 705.749817,1215.987183 
	C684.985840,1214.529541 664.842163,1209.717041 645.090210,1203.455933 
	C612.970276,1193.274414 583.164795,1178.386230 555.980042,1158.342407 
	C553.716064,1156.673096 550.628113,1156.121338 547.923035,1155.050415 
	C547.923035,1155.050415 547.999634,1155.016479 547.989014,1154.635742 
	C548.315369,1149.962891 545.164001,1151.195923 542.888733,1151.041382 
	C542.561035,1150.990112 542.304993,1150.826538 542.050781,1149.915771 
	C542.327576,1144.987793 539.183777,1146.181641 536.888733,1146.041382 
z"/>
<path fill="#4DCEF3" opacity="1.000000" stroke="none" 
	d="
M257.435242,733.280151 
	C234.919632,740.897583 214.043793,750.970703 195.918793,765.788330 
	C171.122253,786.060181 152.221573,810.899353 139.578674,840.568787 
	C132.303131,857.642578 127.442711,875.270630 125.189835,893.538391 
	C123.224731,909.472839 123.644852,925.450073 125.771187,941.511841 
	C128.879745,964.993042 135.837463,987.155029 147.515915,1007.527222 
	C154.664230,1019.996887 163.503632,1031.626953 172.563034,1042.842896 
	C188.997299,1063.189697 210.039139,1077.872925 233.487915,1089.114624 
	C250.456604,1097.249756 268.225342,1103.080078 287.030487,1104.931885 
	C298.532013,1106.064697 310.218140,1107.593506 321.640594,1106.681152 
	C335.785248,1105.551270 349.849426,1102.552124 363.739136,1099.429688 
	C371.503235,1097.684082 378.849091,1094.068237 386.371399,1091.262817 
	C388.732880,1090.382202 390.551880,1090.527588 392.308350,1092.770142 
	C407.216309,1111.804565 422.235626,1130.751709 437.204041,1149.738770 
	C443.503601,1157.729736 449.760925,1165.753784 456.947021,1174.923340 
	C442.530792,1181.772461 428.881989,1188.916992 414.716156,1194.820679 
	C396.808380,1202.283813 377.903442,1206.677490 358.796326,1209.854370 
	C337.464478,1213.401001 315.847992,1214.132812 294.359680,1212.786499 
	C266.925049,1211.067749 240.096405,1205.547974 214.129440,1196.138306 
	C185.770340,1185.861816 159.375259,1171.997070 135.810638,1153.150757 
	C124.343452,1143.979614 113.090378,1134.394775 102.750610,1123.993164 
	C85.989807,1107.131958 71.769325,1088.157837 59.830215,1067.530640 
	C45.412617,1042.620972 34.171223,1016.379456 27.790247,988.285645 
	C24.818726,975.202820 22.557907,961.877319 21.173773,948.537415 
	C19.707403,934.404968 18.875444,920.108337 19.172596,905.912842 
	C19.707666,880.351624 23.980789,855.216309 31.221670,830.691956 
	C36.673840,812.225891 43.895107,794.424255 52.861286,777.326233 
	C62.908642,758.166321 74.585770,740.123047 88.780304,723.791870 
	C96.164322,715.296387 103.547867,706.720093 111.695526,698.984924 
	C130.991379,680.665955 152.203552,664.923950 175.866379,652.483276 
	C197.500610,641.109192 219.992065,632.044067 243.814148,626.770020 
	C257.712463,623.693054 271.894562,621.392090 286.071289,620.214905 
	C301.598480,618.925598 317.316376,618.419800 332.858490,619.269043 
	C347.061432,620.045044 361.279877,622.409546 375.243866,625.278992 
	C400.489716,630.466675 424.375122,639.697021 447.031158,652.023865 
	C450.046265,653.664429 452.960968,655.489502 456.389862,657.503906 
	C450.852966,664.619690 445.587738,671.476501 440.226807,678.257629 
	C428.187531,693.486206 416.091248,708.669617 404.038422,723.887512 
	C399.855774,729.168518 395.864075,734.610474 391.460083,739.697449 
	C390.678497,740.600220 388.146759,740.623657 386.674072,740.193848 
	C372.214752,735.973267 358.015717,730.591187 343.331116,727.485107 
	C327.479462,724.132202 311.118713,723.475769 294.960236,725.992371 
	C282.507385,727.931824 270.184448,730.705505 257.435242,733.280151 
z"/>
<path fill="#4DCEF3" opacity="1.000000" stroke="none" 
	d="
M548.069031,1155.356689 
	C550.628113,1156.121338 553.716064,1156.673096 555.980042,1158.342407 
	C583.164795,1178.386230 612.970276,1193.274414 645.090210,1203.455933 
	C664.842163,1209.717041 684.985840,1214.529541 705.749817,1215.987183 
	C718.312012,1216.868896 730.901917,1217.892212 743.480957,1217.912720 
	C840.627991,1218.071045 937.775330,1218.000000 1035.378906,1218.000000 
	C1035.835327,1219.152222 1035.835327,1220.304443 1035.835327,1222.000000 
	C1033.570923,1222.000000 1031.441528,1222.000000 1029.312134,1222.000000 
	C932.147095,1222.000000 834.981934,1221.947754 737.816956,1222.034058 
	C711.128784,1222.057739 684.986816,1218.287354 659.228455,1211.595459 
	C619.549744,1201.287109 583.746704,1183.025879 551.053223,1158.471558 
	C549.998718,1157.679565 549.156311,1156.605469 548.069031,1155.356689 
z"/>
<path fill="#4DCEF3" opacity="1.000000" stroke="none" 
	d="
M554.413025,875.821045 
	C553.902222,875.027344 553.337097,873.923584 553.549194,872.997925 
	C559.364929,847.617126 570.153625,824.393921 585.478455,803.486267 
	C597.874878,786.573853 613.116028,772.272522 630.463196,760.425476 
	C635.691467,756.854736 641.609314,754.278137 647.270081,751.360107 
	C654.404480,747.682434 661.328674,743.361755 668.831970,740.690918 
	C679.690918,736.825745 690.821167,733.181763 702.144165,731.310730 
	C713.843445,729.377441 725.909729,729.149719 737.818909,729.106201 
	C765.321045,729.005615 791.902222,734.397339 817.140564,745.251648 
	C827.700439,749.793152 837.619385,755.894226 847.601746,761.679626 
	C852.437439,764.482239 856.789307,768.137573 861.244263,771.557922 
	C861.839905,772.015259 861.752136,773.362671 861.970032,774.705566 
	C855.582031,770.841370 849.286316,766.441528 842.812561,762.321411 
	C822.460510,749.368652 800.090271,741.710327 776.556824,736.948914 
	C758.122559,733.219238 739.499268,732.092773 720.837158,733.138855 
	C701.928772,734.198914 683.558960,738.361450 665.909485,745.522095 
	C638.781494,756.528259 615.995728,773.634277 596.465332,795.137390 
	C579.451294,813.870056 567.259216,835.574402 559.061340,859.485474 
	C557.261841,864.734009 556.149658,870.218262 554.413025,875.821045 
z"/>
<path fill="#4DCEF3" opacity="1.000000" stroke="none" 
	d="
M738.104126,973.409119 
	C834.696228,972.999695 931.227600,972.994019 1027.759033,973.035950 
	C1030.035645,973.036926 1032.312012,973.572510 1034.991699,974.100586 
	C1032.938477,975.228333 1030.484375,976.879639 1028.025391,976.887085 
	C978.099915,977.037781 928.173828,977.000000 878.247864,977.000000 
	C833.480957,977.000000 788.713989,977.016479 743.947144,976.953674 
	C741.602905,976.950378 738.178284,978.280701 738.104126,973.409119 
z"/>
<path fill="#4DCEF3" opacity="1.000000" stroke="none" 
	d="
M864.039734,777.341614 
	C866.183777,777.181702 869.327759,775.987854 868.970093,780.697144 
	C867.369812,779.956116 865.780334,778.799011 864.039734,777.341614 
z"/>
<path fill="#4DCEF3" opacity="1.000000" stroke="none" 
	d="
M529.039917,1139.341675 
	C531.183777,1139.181641 534.327576,1137.987793 533.970093,1142.696899 
	C532.369812,1141.955933 530.780457,1140.798950 529.039917,1139.341675 
z"/>
<path fill="#4DCEF3" opacity="1.000000" stroke="none" 
	d="
M537.039917,1146.341675 
	C539.183777,1146.181641 542.327576,1144.987793 541.970032,1149.696899 
	C540.369751,1148.956055 538.780396,1147.798950 537.039917,1146.341675 
z"/>
<path fill="#4DCEF3" opacity="1.000000" stroke="none" 
	d="
M543.039612,1151.341553 
	C545.164001,1151.195923 548.315369,1149.962891 547.964050,1154.669434 
	C546.363281,1153.936401 544.776917,1152.789062 543.039612,1151.341553 
z"/>
<path fill="#4DCEF3" opacity="1.000000" stroke="none" 
	d="
M553.390869,880.861938 
	C553.137695,880.071106 553.170044,879.094238 553.518799,878.060730 
	C553.782227,878.894714 553.729309,879.785339 553.390869,880.861938 
z"/>
<path fill="#4DCEF3" opacity="1.000000" stroke="none" 
	d="
M552.390869,885.861938 
	C552.137695,885.071106 552.170105,884.094238 552.518799,883.060730 
	C552.782227,883.894714 552.729309,884.785339 552.390869,885.861938 
z"/>
<path fill="#4DCEF3" opacity="1.000000" stroke="none" 
	d="
M551.390869,891.861938 
	C551.137695,891.071106 551.170105,890.094238 551.518799,889.060730 
	C551.782166,889.894714 551.729248,890.785339 551.390869,891.861938 
z"/>
<path fill="#4DCEF3" opacity="1.000000" stroke="none" 
	d="
M550.390869,900.861938 
	C550.137695,900.071106 550.170105,899.094238 550.518799,898.060730 
	C550.782227,898.894714 550.729309,899.785339 550.390869,900.861938 
z"/>
<path fill="#4DCEF3" opacity="1.000000" stroke="none" 
	d="
M1039.390869,946.861938 
	C1039.137817,946.071106 1039.170288,945.094177 1039.518799,944.060669 
	C1039.782227,944.894653 1039.729248,945.785278 1039.390869,946.861938 
z"/>
<path fill="#4DCEF3" opacity="1.000000" stroke="none" 
	d="
M1038.390869,957.861938 
	C1038.137695,957.071106 1038.170044,956.094177 1038.518799,955.060669 
	C1038.782227,955.894653 1038.729370,956.785278 1038.390869,957.861938 
z"/>
<path fill="#4DCEF3" opacity="1.000000" stroke="none" 
	d="
M1037.390869,965.861938 
	C1037.137817,965.071106 1037.170166,964.094177 1037.518799,963.060669 
	C1037.782227,963.894653 1037.729370,964.785278 1037.390869,965.861938 
z"/>
<path fill="#4DCEF3" opacity="1.000000" stroke="none" 
	d="
M1035.589600,972.476196 
	C1035.535278,971.481689 1035.817749,970.334229 1036.467773,969.095825 
	C1036.532349,970.111084 1036.229370,971.217163 1035.589600,972.476196 
z"/>
</svg>